<?xml version="1.0" encoding="UTF-8"?>
<svg width="23px" height="23px" viewBox="0 0 23 23" version="1.1" xmlns="http://www.w3.org/2000/svg" xmlns:xlink="http://www.w3.org/1999/xlink">
    <title>facebook-square-brands</title>
    <defs>
        <filter id="filter-1">
            <feColorMatrix in="SourceGraphic" type="matrix" values="0 0 0 0 0.905882 0 0 0 0 0.886275 0 0 0 0 0.278431 0 0 0 1.000000 0"></feColorMatrix>
        </filter>
    </defs>
    <g id="Design" stroke="none" stroke-width="1" fill="none" fill-rule="evenodd">
        <g id="Desktop" transform="translate(-985.000000, -2728.000000)">
            <g id="footer" transform="translate(-19.000000, 2644.000000)">
                <g id="facebook-square-brands" transform="translate(863.000000, 42.000000)" filter="url(#filter-1)">
                    <g transform="translate(141.000000, 42.000000)">
                        <path d="M20,-3.55271368e-16 L2.4,-3.55271368e-16 C1.0745166,-3.55271368e-16 0,1.0745166 0,2.4 L0,20 C0,21.3254834 1.0745166,22.4 2.4,22.4 L9.2625,22.4 L9.2625,14.7845 L6.1125,14.7845 L6.1125,11.2 L9.2625,11.2 L9.2625,8.468 C9.2625,5.3605 11.1125,3.644 13.946,3.644 C15.303,3.644 16.722,3.886 16.722,3.886 L16.722,6.936 L15.1585,6.936 C13.618,6.936 13.1375,7.892 13.1375,8.8725 L13.1375,11.2 L16.5765,11.2 L16.0265,14.7845 L13.1375,14.7845 L13.1375,22.4 L20,22.4 C21.3254834,22.4 22.4,21.3254834 22.4,20 L22.4,2.4 C22.4,1.0745166 21.3254834,-3.55271368e-16 20,-3.55271368e-16 L20,-3.55271368e-16 Z" id="Path" fill="#FFFFFF" fill-rule="nonzero"></path>
                    </g>
                </g>
            </g>
        </g>
    </g>
</svg>